<svg xmlns="http://www.w3.org/2000/svg" width="1em" height="1em" viewBox="0 0 24 24">
	<g fill="none" stroke="currentColor" stroke-linecap="round" stroke-linejoin="round" stroke-width="1.5" color="currentColor">
		<path d="M4 12c0-3.771 0-5.657 1.172-6.828S8.229 4 12 4s5.657 0 6.828 1.172S20 8.229 20 12s0 5.657-1.172 6.828S15.771 20 12 20s-5.657 0-6.828-1.172S4 15.771 4 12" />
		<path d="m7.5 15l1.842-5.526a.694.694 0 0 1 1.316 0L12.5 15m-4-2h3m4-4v6M8 2v2m8-2v2m-4-2v2M8 20v2m4-2v2m4-2v2m6-6h-2M4 8H2m2 8H2m2-4H2m20-4h-2m2 4h-2" />
	</g>
</svg>